<svg xmlns="http://www.w3.org/2000/svg" xmlns:xlink="http://www.w3.org/1999/xlink" id="Layer_1" x="0" y="0" version="1.1" viewBox="0 0 95 95" xml:space="preserve" style="enable-background:new 0 0 95 95"><style type="text/css">.st0{fill:#19a3dd}.st2{fill:#fff}</style><g><path d="M47.5,93.3c25.3,0,45.9-20.5,45.9-45.9S72.8,1.6,47.5,1.6S1.6,22.2,1.6,47.5S22.2,93.3,47.5,93.3z" class="st0"/><g><g><polygon points="62.4 31.1 58.6 31.1 58.6 26.5 62.4 26.5 62.4 22.7 54.8 22.7 54.8 28.8 54.8 34.9 62.4 34.9" class="st2"/><polygon points="61.8 22.7 61.8 26.5 63.2 26.5 63.2 31.1 61.8 31.1 61.8 34.9 67 34.9 67 22.7" class="st2"/></g><g><rect width="9" height="3.3" x="38.1" y="45.6" class="st2"/><rect width="10.7" height="3.3" x="50.3" y="45.6" class="st2"/></g><g><polygon points="50.2 27.1 47.2 33.9 50.8 33.9 52.3 30.3 54.8 30.3 54.8 27.1" class="st2"/><polygon points="45.8 37.1 44.8 39.5 38.1 39.5 38.1 42.8 46.9 42.8 49.4 37.1" class="st2"/></g><g><polygon points="52.3 64.1 50.6 60.6 47.1 60.6 50.1 67.4 54.8 67.4 54.8 64.1" class="st2"/><polygon points="45.7 57.3 49.3 57.3 46.9 51.7 38.1 51.7 38.1 54.9 44.7 54.9" class="st2"/></g><g><polygon points="62.4 68 58.6 68 58.6 63.3 62.4 63.3 62.4 59.5 54.8 59.5 54.8 65.6 54.8 71.8 62.4 71.8" class="st2"/><polygon points="61.8 59.5 61.8 63.3 63.2 63.3 63.2 68 61.8 68 61.8 71.8 67 71.8 67 59.5" class="st2"/></g><g><polygon points="68.3 49.5 64.8 49.5 64.8 44.9 69.1 44.9 69.1 41.1 61 41.1 61 47.2 61 53.3 68.3 53.3" class="st2"/><polygon points="68 41.1 68 44.9 69.4 44.9 69.4 49.5 68 49.5 68 53.3 73.2 53.3 73.2 41.1" class="st2"/></g><polygon points="33.3 37.1 42.1 37.1 43.5 33.9 33.3 33.9" class="st2"/><polygon points="25 42.6 25 37.1 34.4 37.1 34.4 33.9 21.8 33.9 21.8 42.6" class="st2"/><g><polygon points="33.3 60.6 43.3 60.6 41.9 57.3 33.3 57.3" class="st2"/><polygon points="35 57.3 25 57.3 25 51.8 21.8 51.8 21.8 60.6 35 60.6" class="st2"/></g></g></g></svg>